<?xml version="1.0" encoding="UTF-8"?>
<svg xmlns="http://www.w3.org/2000/svg" viewBox="0 0 32 32">
    <rect width="32" height="32" rx="4" fill="#0d0b14" />
    <svg id="unicorn" data-name="unicorn" xmlns="http://www.w3.org/2000/svg" viewBox="0 0 200 200">
        <defs>
            <style>
                .yellow {
                    fill: #ffec4a;
                }

                .purple {
                    fill: #8957ff;
                }

                .violet {
                    fill: #b57dff;
                }

                .pink {
                    fill: #ff26fa;
                }

                .white {
                    fill: #e6e7e8;
                }
            </style>
        </defs>
        <path class="purple"
            d="M46.88,134.2c.62,0,1.24-.24,1.72-.71.94-.95.94-2.48,0-3.42-.25-.25-.57-.56-.15-1.12.79-1.04.64-2.56-.38-3.38-1.02-.82-2.48-.72-3.34.28-1.34,1.56-2.33,4.89.44,7.65.47.47,1.1.71,1.72.71Z" />
        <path class="pink"
            d="M62.68,65.49c.33,0,.66-.07.98-.21,1.22-.54,1.78-1.97,1.24-3.19-7.26-16.43-14.42-34.83-15.93-42.03,5.36,5.04,17.41,20.75,27.33,34.99.76,1.09,2.27,1.37,3.37.6,1.1-.76,1.36-2.27.6-3.37C51.6,11.13,47.66,13.06,45.75,13.98c-2.13,1.03-6.1,2.96,14.72,50.07.39.91,1.28,1.44,2.21,1.44Z" />
        <path class="yellow"
            d="M63.31,94.68c1.27-1.1,2.63-2.5,4.13-4.03,6.67-6.83,15.83-16.17,30.15-12.46.78.2,1.57-.26,1.77-1.04.2-.78-.27-1.57-1.04-1.77-15.98-4.16-26.2,6.32-32.96,13.24-1.44,1.47-2.74,2.81-3.96,3.87-4.39,3.82-13.22,5.77-20.09,4.45-1.73-.33-3.82-.97-5.46-2.18,5.98.02,17.63-1.71,25.25-14.86,5.46-9.43,13.61-15.96,21.8-17.48,6.47-1.19,12.76.6,18.67,5.36.63.5,1.54.4,2.04-.22.5-.62.41-1.54-.22-2.04-6.5-5.24-13.77-7.31-21.02-5.96-9.01,1.67-17.9,8.73-23.78,18.88-9.41,16.25-25.15,13.31-25.82,13.18-.54-.11-1.11.1-1.44.55-.34.45-.39,1.04-.13,1.54,1.59,3.09,4.91,5.19,9.58,6.09,7.68,1.48,17.42-.66,22.55-5.11Z" />
        <path class="yellow"
            d="M52.09,79.72c.1,0,.2,0,.29-.03.78-.16,1.29-.92,1.14-1.71-.05-.25-1.14-6.14,4.22-10.23.64-.49.76-1.4.28-2.04s-1.39-.76-2.04-.28c-6.85,5.23-5.38,12.81-5.3,13.13.14.68.74,1.15,1.42,1.15Z" />
        <path class="yellow"
            d="M107.49,53.06c.59,0,1.15-.37,1.36-.96.28-.75-.12-1.59-.87-1.86-12.83-4.64-23.1-1.53-23.54-1.4-.76.24-1.19,1.05-.95,1.82.24.77,1.06,1.2,1.82.96.1-.03,9.82-2.94,21.68,1.35.16.06.33.09.5.09Z" />
        <path class="yellow"
            d="M119.03,165.45s.06,0,.1,0c.67-.05,1.23-.55,1.34-1.22.02-.1,1.71-9.85,12.79-17.44,12.11-8.3,17.22-21.52,17.91-30.32.72-9.16-.38-21.21-15.39-33.25-.63-.5-1.54-.41-2.05.22-.5.63-.4,1.54.22,2.05,13.95,11.19,14.98,22.32,14.31,30.76-.64,8.16-5.38,20.43-16.65,28.14-6.63,4.54-10.17,9.75-12.04,13.63-.23-3.5-.02-8.34,1.72-13.63,1.59-4.82,3.99-7.71,6.52-10.76,3.13-3.76,6.36-7.65,8.44-15.24,3.9-14.23-6.18-23.63-6.61-24.02-.59-.54-1.51-.5-2.05.09-.54.59-.5,1.51.09,2.05.38.35,9.19,8.63,5.77,21.11-1.92,6.99-4.94,10.63-7.87,14.15-2.6,3.13-5.29,6.36-7.05,11.71-3.73,11.32-1.01,20.55-.9,20.94.19.61.76,1.03,1.39,1.03Z" />
        <path class="yellow"
            d="M119.11,186.36c8.4,0,16.16-2.45,19.81-4.44,18.96-10.33,29.06-29.89,30-58.13,1.25-37.47-18.6-57.67-32.25-62.11-.76-.25-1.59.17-1.83.93-.25.76.17,1.58.93,1.83,12.81,4.16,31.44,23.38,30.24,59.24-.9,27.14-10.49,45.87-28.49,55.68-4.39,2.4-18.73,6.64-30.38,1.94,7.38-1.62,22.27-6.34,30.65-18.88,9.23-13.82,10.07-20.3,10.1-20.57.09-.8-.48-1.52-1.27-1.61-.81-.09-1.52.48-1.61,1.28,0,.05-.89,6.2-9.63,19.29-10.45,15.66-32.69,18.36-32.92,18.39-.61.07-1.12.52-1.25,1.12-.13.6.12,1.22.65,1.55,5.3,3.31,11.43,4.48,17.25,4.48Z" />
        <path class="violet"
            d="M84.23,112.2c-2.25-1.61-2.47-5.02-.6-7.61,1.82-2.54,5.25-3.41,7.4-1.86,1.11.79,1.78,2.1,1.85,3.58.07,1.38-.38,2.81-1.25,4.02-1.93,2.69-5.23,3.42-7.4,1.86ZM85.98,106.28c-.92,1.29-.95,2.91-.06,3.55.85.62,2.46.04,3.34-1.19,1.1-1.54.77-3.05.06-3.55-.88-.64-2.42-.09-3.34,1.2Z" />
        <path class="white"
            d="M55.58,149.12c4.01-.7,7.85-1.73,11.57-2.73,6.68-1.8,13.59-3.66,21.85-3.66,11.96,0,27.86-2.18,27.86-21.07,0-.8-.65-1.45-1.45-1.45s-1.45.65-1.45,1.45c0,12.73-7.46,18.17-24.95,18.17-8.65,0-15.74,1.91-22.61,3.76-3.82,1.03-7.42,2-11.31,2.68-11.82,2.05-16.01-8.69-17.01-12.03-1.47-4.92-1.55-11.74,6.35-16.28,6.76-3.89,15.98-12.46,18.96-15.43.57-.57.57-1.49,0-2.06-.57-.57-1.49-.57-2.06,0-2.9,2.9-11.86,11.24-18.35,14.97-7.46,4.28-10.19,11.26-7.69,19.63,2.8,9.39,10.02,15.85,20.29,14.07Z" />
        <path class="white"
            d="M91.75,168.02c.73,0,1.36-.55,1.44-1.29,1.32-11.82-.63-17.8-.71-18.05-.25-.76-1.08-1.17-1.83-.92-.76.25-1.17,1.07-.92,1.83.02.06,1.81,5.7.58,16.81-.09.8.49,1.52,1.28,1.6.06,0,.11,0,.17,0Z" />
        <path class="white"
            d="M122.9,94.49c.51,0,1.01-.27,1.27-.75,14.2-25.56-1.09-47.42-6.23-47.47-.72.03-1.34.42-1.66,1.05-1.47,2.88-12.68,31.59-13.16,32.81-.29.75.08,1.59.83,1.88.74.3,1.59-.08,1.88-.83,3.7-9.49,10.71-27.26,12.66-31.71,4.27,3.13,15.39,20.81,3.15,42.85-.39.7-.14,1.59.57,1.98.22.12.47.18.7.18Z" />
        <path class="white"
            d="M117.9,87.68c.51,0,1.01-.27,1.27-.75,4.08-7.34,1.52-14.56.19-16.72-.23-.38-.9-1.44-1.92-1.34-.52.02-1.08.38-1.32.85-.46.9-4.39,11.47-5.18,13.58-.28.75.1,1.59.86,1.87.75.29,1.59-.1,1.87-.86,1.2-3.23,2.94-7.87,4.04-10.74.86,2.66,1.47,7.36-1.07,11.94-.39.7-.14,1.59.57,1.98.22.12.46.18.7.18Z" />
    </svg>
</svg>